<svg id="livetype" xmlns="http://www.w3.org/2000/svg" width="173.51" height="58" viewBox="0 0 173.51 58"><title>app-store</title><path d="M159.69,0H12.24L10.91,0A19.16,19.16,0,0,0,8,.28a9.66,9.66,0,0,0-2.76.91A9.33,9.33,0,0,0,2.9,2.9,9.07,9.07,0,0,0,1.19,5.25,9.57,9.57,0,0,0,.28,8,18.84,18.84,0,0,0,0,10.91c0,.44,0,.89,0,1.34V45.76c0,.45,0,.89,0,1.34A18.84,18.84,0,0,0,.28,50a9.55,9.55,0,0,0,.91,2.76A9,9,0,0,0,2.9,55.1a9.1,9.1,0,0,0,2.35,1.71A9.72,9.72,0,0,0,8,57.73a19.51,19.51,0,0,0,2.91.26l1.33,0h149l1.34,0a19.25,19.25,0,0,0,2.9-.26,9.87,9.87,0,0,0,2.77-.91,9.1,9.1,0,0,0,2.34-1.71,9.27,9.27,0,0,0,1.71-2.34,9.58,9.58,0,0,0,.9-2.76,19.59,19.59,0,0,0,.27-2.9c0-.45,0-.89,0-1.34s0-1.05,0-1.59V13.83c0-.53,0-1.06,0-1.58s0-.89,0-1.34a19.59,19.59,0,0,0-.27-2.9,9.6,9.6,0,0,0-.9-2.76,9.38,9.38,0,0,0-4.06-4.06A9.81,9.81,0,0,0,165.5.28,18.91,18.91,0,0,0,162.6,0l-1.34,0h-1.57Z" transform="translate(0 0)" style="fill:#a6a6a6"/><path d="M12.24,56.73l-1.31,0a18.4,18.4,0,0,1-2.71-.24,8.53,8.53,0,0,1-2.4-.79,7.84,7.84,0,0,1-2-1.47,7.72,7.72,0,0,1-1.48-2,8.3,8.3,0,0,1-.79-2.4,18,18,0,0,1-.24-2.72c0-.31,0-1.32,0-1.32V12.24s0-1,0-1.3a17.94,17.94,0,0,1,.24-2.71,8.35,8.35,0,0,1,.79-2.41,7.79,7.79,0,0,1,1.47-2,8.07,8.07,0,0,1,2-1.48,8.44,8.44,0,0,1,2.4-.79,18.25,18.25,0,0,1,2.72-.24l1.31,0h149l1.32,0a18,18,0,0,1,2.69.24,8.61,8.61,0,0,1,2.42.79,8.11,8.11,0,0,1,3.5,3.51A8.36,8.36,0,0,1,172,8.22a18.84,18.84,0,0,1,.25,2.74c0,.41,0,.85,0,1.29s0,1.06,0,1.58V44.17c0,.53,0,1,0,1.56s0,.9,0,1.35a18.46,18.46,0,0,1-.25,2.69,8.32,8.32,0,0,1-.78,2.42,8,8,0,0,1-1.47,2,7.85,7.85,0,0,1-2,1.48,8.5,8.5,0,0,1-2.42.8,18.19,18.19,0,0,1-2.71.24l-1.3,0h-149Z" transform="translate(0 0)"/><g id="_Group_" data-name=" Group "><g id="_Group_2" data-name=" Group 2"><g id="_Group_3" data-name=" Group 3"><path id="_Path_" data-name=" Path " d="M35.91,29.44a7.18,7.18,0,0,1,3.42-6,7.35,7.35,0,0,0-5.79-3.13c-2.43-.26-4.8,1.46-6,1.46s-3.18-1.43-5.23-1.39a7.71,7.71,0,0,0-6.49,4c-2.8,4.86-.71,12,2,15.92,1.34,1.92,2.91,4.07,5,4s2.76-1.28,5.19-1.28,3.11,1.28,5.21,1.23,3.52-1.93,4.81-3.87a15.89,15.89,0,0,0,2.2-4.48A6.93,6.93,0,0,1,35.91,29.44Z" transform="translate(0 0)" style="fill:#fff"/><path id="_Path_2" data-name=" Path 2" d="M32,17.71a7.07,7.07,0,0,0,1.62-5.06,7.19,7.19,0,0,0-4.65,2.41,6.72,6.72,0,0,0-1.66,4.87A5.94,5.94,0,0,0,32,17.71Z" transform="translate(0 0)" style="fill:#fff"/></g></g><path d="M61.34,39.35H54.47l-1.65,4.87H49.92l6.5-18h3l6.5,18H63Zm-6.15-2.25h5.44l-2.68-7.9h-.08Z" transform="translate(0 0)" style="fill:#fff"/><path d="M80,37.66c0,4.08-2.18,6.7-5.48,6.7a4.45,4.45,0,0,1-4.13-2.3h-.06v6.5H67.62V31.09h2.61v2.18h0A4.66,4.66,0,0,1,74.45,31C77.78,31,80,33.59,80,37.66Zm-2.77,0c0-2.66-1.37-4.41-3.47-4.41S70.3,35,70.3,37.66s1.38,4.42,3.44,4.42S77.21,40.34,77.21,37.66Z" transform="translate(0 0)" style="fill:#fff"/><path d="M94.43,37.66c0,4.08-2.18,6.7-5.48,6.7a4.45,4.45,0,0,1-4.13-2.3h-.06v6.5H82.06V31.09h2.61v2.18h0A4.66,4.66,0,0,1,88.9,31C92.23,31,94.43,33.59,94.43,37.66Zm-2.77,0c0-2.66-1.37-4.41-3.47-4.41S84.75,35,84.75,37.66s1.38,4.42,3.44,4.42,3.47-1.73,3.47-4.42Z" transform="translate(0 0)" style="fill:#fff"/><path d="M104,39.2c.2,1.79,1.93,3,4.3,3s3.91-1.17,3.91-2.78c0-1.4-1-2.23-3.32-2.81L106.54,36c-3.31-.8-4.84-2.34-4.84-4.85,0-3.11,2.71-5.24,6.55-5.24s6.41,2.13,6.5,5.24H112c-.16-1.8-1.65-2.88-3.82-2.88s-3.66,1.1-3.66,2.69c0,1.27.95,2,3.27,2.6l2,.49c3.69.87,5.23,2.36,5.23,5,0,3.37-2.68,5.48-7,5.48-4,0-6.69-2.06-6.86-5.32Z" transform="translate(0 0)" style="fill:#fff"/><path d="M120.85,28v3.11h2.5v2.13h-2.5v7.24c0,1.12.5,1.65,1.6,1.65a8.42,8.42,0,0,0,.89-.06v2.12a7.4,7.4,0,0,1-1.5.12c-2.66,0-3.69-1-3.69-3.54V33.23h-1.91V31.09h1.91V28Z" transform="translate(0 0)" style="fill:#fff"/><path d="M124.79,37.66c0-4.13,2.43-6.73,6.23-6.73s6.23,2.6,6.23,6.73-2.41,6.73-6.23,6.73S124.79,41.8,124.79,37.66Zm9.71,0c0-2.83-1.3-4.51-3.48-4.51s-3.48,1.69-3.48,4.51,1.3,4.5,3.48,4.5,3.48-1.66,3.48-4.5Z" transform="translate(0 0)" style="fill:#fff"/><path d="M139.47,31.09H142v2.23h.06A3.13,3.13,0,0,1,145.26,31a4.16,4.16,0,0,1,.92.1v2.52a3.77,3.77,0,0,0-1.21-.16,2.72,2.72,0,0,0-2.81,3v7.79h-2.69Z" transform="translate(0 0)" style="fill:#fff"/><path d="M158.61,40.36c-.36,2.38-2.68,4-5.65,4-3.82,0-6.19-2.56-6.19-6.66s2.38-6.79,6.08-6.79,5.92,2.5,5.92,6.48v.92h-9.27v.16a3.42,3.42,0,0,0,3.1,3.71H153a3,3,0,0,0,3-1.85Zm-9.11-3.92h6.56a3.16,3.16,0,0,0-3-3.33h-.24a3.32,3.32,0,0,0-3.34,3.3S149.5,36.44,149.5,36.45Z" transform="translate(0 0)" style="fill:#fff"/></g><g id="_Group_4" data-name=" Group 4"><path d="M54.85,12.66A3.83,3.83,0,0,1,58.92,17c0,2.76-1.49,4.35-4.07,4.35H51.72V12.66Zm-1.78,7.43H54.7A2.72,2.72,0,0,0,57.55,17a2.73,2.73,0,0,0-2.85-3.09H53.07Z" transform="translate(0 0)" style="fill:#fff"/><path d="M60.44,18a3.09,3.09,0,1,1,6.16,0,3.09,3.09,0,1,1-6.16,0Zm4.83,0c0-1.42-.64-2.24-1.75-2.24s-1.75.83-1.75,2.24.63,2.25,1.75,2.25,1.75-.83,1.75-2.25Z" transform="translate(0 0)" style="fill:#fff"/><path d="M74.78,21.31H73.44L72.09,16.5H72l-1.34,4.81H69.33l-1.8-6.53h1.31l1.17,5h.1l1.34-5h1.24l1.34,5h.1l1.16-5h1.29Z" transform="translate(0 0)" style="fill:#fff"/><path d="M78.09,14.78h1.24v1h.1a2,2,0,0,1,1.95-1.16,2.12,2.12,0,0,1,2.26,2.43v4.23H82.34v-3.9c0-1-.46-1.57-1.41-1.57a1.5,1.5,0,0,0-1.56,1.65v3.82H78.09Z" transform="translate(0 0)" style="fill:#fff"/><path d="M85.69,12.23H87v9.08H85.69Z" transform="translate(0 0)" style="fill:#fff"/><path d="M88.77,18a3.09,3.09,0,1,1,6.16,0,3.09,3.09,0,1,1-6.16,0Zm4.83,0c0-1.42-.64-2.24-1.75-2.24S90.1,16.63,90.1,18s.63,2.25,1.75,2.25S93.6,19.47,93.6,18Z" transform="translate(0 0)" style="fill:#fff"/><path d="M96.28,19.47c0-1.18.88-1.85,2.43-1.95l1.77-.1v-.56c0-.69-.46-1.08-1.34-1.08-.72,0-1.22.26-1.36.73H96.53c.13-1.12,1.19-1.84,2.67-1.84,1.64,0,2.56.81,2.56,2.19v4.46h-1.24v-.92h-.1a2.2,2.2,0,0,1-2,1,2,2,0,0,1-2.17-1.76Q96.28,19.56,96.28,19.47Zm4.2-.56v-.55l-1.59.1c-.9.06-1.31.37-1.31.94s.51.93,1.21.93A1.54,1.54,0,0,0,100.47,19Z" transform="translate(0 0)" style="fill:#fff"/><path d="M103.45,18c0-2.06,1.06-3.37,2.71-3.37a2.15,2.15,0,0,1,2,1.15h.1V12.23h1.29v9.08h-1.23v-1h-.1a2.27,2.27,0,0,1-2.05,1.14C104.5,21.42,103.45,20.11,103.45,18Zm1.33,0c0,1.38.65,2.22,1.74,2.22s1.76-.85,1.76-2.21-.68-2.22-1.76-2.22-1.74.84-1.74,2.21Z" transform="translate(0 0)" style="fill:#fff"/><path d="M114.88,18A3.09,3.09,0,1,1,121,18a3.09,3.09,0,1,1-6.16,0Zm4.83,0c0-1.42-.64-2.24-1.75-2.24s-1.75.83-1.75,2.24.63,2.25,1.75,2.25S119.72,19.47,119.72,18Z" transform="translate(0 0)" style="fill:#fff"/><path d="M122.77,14.78H124v1h.1a2,2,0,0,1,1.95-1.16,2.12,2.12,0,0,1,2.26,2.43v4.23H127v-3.9c0-1-.46-1.57-1.41-1.57a1.5,1.5,0,0,0-1.56,1.65v3.82h-1.29Z" transform="translate(0 0)" style="fill:#fff"/><path d="M135.6,13.16v1.66H137V15.9H135.6v3.36c0,.68.28,1,.92,1l.49,0v1.07a4.23,4.23,0,0,1-.7.07c-1.43,0-2-.5-2-1.76V15.9h-1V14.81h1V13.16Z" transform="translate(0 0)" style="fill:#fff"/><path d="M138.77,12.23H140v3.6h.1a2,2,0,0,1,2-1.17,2.15,2.15,0,0,1,2.25,2.43v4.22H143.1v-3.9c0-1-.49-1.57-1.4-1.57a1.53,1.53,0,0,0-1.64,1.66v3.81h-1.29Z" transform="translate(0 0)" style="fill:#fff"/><path d="M151.9,19.55a2.65,2.65,0,0,1-2.83,1.89,3,3,0,0,1-3-3.37,3,3,0,0,1,3-3.41c1.82,0,2.91,1.24,2.91,3.29v.45h-4.61v.07a1.73,1.73,0,0,0,1.57,1.86h.16a1.57,1.57,0,0,0,1.55-.79Zm-4.53-2.1h3.3a1.58,1.58,0,0,0-1.45-1.69h-.15a1.67,1.67,0,0,0-1.69,1.65s0,0,0,0Z" transform="translate(0 0)" style="fill:#fff"/></g></svg>