<svg id="artwork" xmlns="http://www.w3.org/2000/svg" xmlns:xlink="http://www.w3.org/1999/xlink" width="195.75" height="58" viewBox="0 0 195.75 58"><defs><linearGradient id="linear-gradient" x1="31.61" y1="189.37" x2="7.27" y2="165.04" gradientTransform="matrix(1, 0, 0, -1, 0, 202)" gradientUnits="userSpaceOnUse"><stop offset="0" stop-color="#00a0ff"/><stop offset="0.01" stop-color="#00a1ff"/><stop offset="0.26" stop-color="#00beff"/><stop offset="0.51" stop-color="#00d2ff"/><stop offset="0.76" stop-color="#00dfff"/><stop offset="1" stop-color="#00e3ff"/></linearGradient><linearGradient id="linear-gradient-2" x1="49.06" y1="173" x2="13.97" y2="173" gradientTransform="matrix(1, 0, 0, -1, 0, 202)" gradientUnits="userSpaceOnUse"><stop offset="0" stop-color="#ffe000"/><stop offset="0.41" stop-color="#ffbd00"/><stop offset="0.78" stop-color="orange"/><stop offset="1" stop-color="#ff9c00"/></linearGradient><linearGradient id="linear-gradient-3" x1="36" y1="169.67" x2="3" y2="136.67" gradientTransform="matrix(1, 0, 0, -1, 0, 202)" gradientUnits="userSpaceOnUse"><stop offset="0" stop-color="#ff3a44"/><stop offset="1" stop-color="#c31162"/></linearGradient><linearGradient id="linear-gradient-4" x1="10.58" y1="201.74" x2="25.32" y2="187.01" gradientTransform="matrix(1, 0, 0, -1, 0, 202)" gradientUnits="userSpaceOnUse"><stop offset="0" stop-color="#32a071"/><stop offset="0.07" stop-color="#2da771"/><stop offset="0.48" stop-color="#15cf74"/><stop offset="0.8" stop-color="#06e775"/><stop offset="1" stop-color="#00f076"/></linearGradient></defs><title>google-play</title><rect width="195.75" height="58" rx="7.25" ry="7.25"/><path d="M188.5,1.16a6.1,6.1,0,0,1,6.09,6.09v43.5a6.1,6.1,0,0,1-6.09,6.09H7.25a6.1,6.1,0,0,1-6.09-6.09V7.25A6.1,6.1,0,0,1,7.25,1.16H188.5m0-1.16H7.25A7.27,7.27,0,0,0,0,7.25v43.5A7.27,7.27,0,0,0,7.25,58H188.5a7.27,7.27,0,0,0,7.25-7.25V7.25A7.27,7.27,0,0,0,188.5,0Z" transform="translate(0 0)" style="fill:#a6a6a6"/><path d="M68.76,14.85a3.93,3.93,0,0,1-1.08,2.9A4.22,4.22,0,0,1,64.48,19,4.48,4.48,0,0,1,60,14.5,4.48,4.48,0,0,1,64.48,10a4.49,4.49,0,0,1,1.79.36,3.59,3.59,0,0,1,1.36,1l-.76.77a2.94,2.94,0,0,0-2.38-1A3.36,3.36,0,0,0,61.1,14.5,3.42,3.42,0,0,0,66.91,17a2.74,2.74,0,0,0,.73-1.76H64.48v-1H68.7A3.69,3.69,0,0,1,68.76,14.85Z" transform="translate(0 0)" style="fill:#fff;stroke:#fff;stroke-miterlimit:10;stroke-width:0.289998550007247px"/><path d="M75.44,11.22h-4V14h3.57v1H71.48v2.76h4v1.07H70.36v-8.7h5.08Z" transform="translate(0 0)" style="fill:#fff;stroke:#fff;stroke-miterlimit:10;stroke-width:0.289998550007247px"/><path d="M80.15,18.85H79V11.22H76.61V10.15h6v1.07H80.15Z" transform="translate(0 0)" style="fill:#fff;stroke:#fff;stroke-miterlimit:10;stroke-width:0.289998550007247px"/><path d="M86.91,18.85v-8.7H88v8.7Z" transform="translate(0 0)" style="fill:#fff;stroke:#fff;stroke-miterlimit:10;stroke-width:0.289998550007247px"/><path d="M93,18.85H91.87V11.22H89.44V10.15h6v1.07H93Z" transform="translate(0 0)" style="fill:#fff;stroke:#fff;stroke-miterlimit:10;stroke-width:0.289998550007247px"/><path d="M106.73,17.73a4.52,4.52,0,0,1-6.38,0,4.45,4.45,0,0,1-1.28-3.23,4.45,4.45,0,0,1,1.28-3.23,4.5,4.5,0,0,1,6.37,0A4.45,4.45,0,0,1,108,14.5,4.45,4.45,0,0,1,106.73,17.73ZM101.18,17a3.35,3.35,0,0,0,4.73,0,3.41,3.41,0,0,0,1-2.5,3.41,3.41,0,0,0-1-2.5,3.35,3.35,0,0,0-4.73,0,3.41,3.41,0,0,0-1,2.5A3.41,3.41,0,0,0,101.18,17Z" transform="translate(0 0)" style="fill:#fff;stroke:#fff;stroke-miterlimit:10;stroke-width:0.289998550007247px"/><path d="M109.58,18.85v-8.7h1.36l4.23,6.77h0l0-1.68V10.15h1.12v8.7h-1.17l-4.42-7.1h0l0,1.68v5.42Z" transform="translate(0 0)" style="fill:#fff;stroke:#fff;stroke-miterlimit:10;stroke-width:0.289998550007247px"/><path d="M98.8,31.54A6.17,6.17,0,1,0,105,37.71,6.08,6.08,0,0,0,98.8,31.54Zm0,9.9a3.75,3.75,0,1,1,3.48-3.74A3.57,3.57,0,0,1,98.8,41.44Zm-13.5-9.9a6.17,6.17,0,1,0,6.19,6.17A6.08,6.08,0,0,0,85.29,31.54Zm0,9.9a3.75,3.75,0,1,1,3.48-3.74A3.57,3.57,0,0,1,85.29,41.44Zm-16.06-8V36h6.26a5.46,5.46,0,0,1-1.43,3.29,6.41,6.41,0,0,1-4.84,1.92,7,7,0,0,1,0-13.92,6.67,6.67,0,0,1,4.72,1.87l1.85-1.85a9.13,9.13,0,0,0-6.56-2.64,9.58,9.58,0,1,0,0,19.16,8.76,8.76,0,0,0,6.68-2.69,8.64,8.64,0,0,0,2.27-6.12A8.51,8.51,0,0,0,78,33.43Zm65.7,2a5.73,5.73,0,0,0-5.28-3.92,5.86,5.86,0,0,0-5.82,6.17,6,6,0,0,0,6.12,6.17,6.13,6.13,0,0,0,5.14-2.73l-2.1-1.4a3.52,3.52,0,0,1-3,1.71,3.14,3.14,0,0,1-3-1.87l8.25-3.41Zm-8.41,2.06a3.38,3.38,0,0,1,3.22-3.6A2.39,2.39,0,0,1,132,35.23Zm-6.7,6h2.71V25.37h-2.71Zm-4.44-10.58h-.09A4.27,4.27,0,0,0,112,31.54a6.17,6.17,0,0,0,0,12.33,4.2,4.2,0,0,0,3.25-1.4h.09v.89c0,2.36-1.26,3.62-3.29,3.62a3.41,3.41,0,0,1-3.11-2.2l-2.36,1a5.88,5.88,0,0,0,5.47,3.64c3.18,0,5.86-1.87,5.86-6.42V31.91h-2.57Zm-3.11,8.53a3.75,3.75,0,0,1,0-7.48,3.48,3.48,0,0,1,3.29,3.76A3.45,3.45,0,0,1,112.27,41.44Zm35.35-16.07h-6.48V43.5h2.71V36.63h3.78a5.64,5.64,0,1,0,0-11.26Zm.07,8.74h-3.85V27.9h3.85a3.11,3.11,0,1,1,0,6.21Zm16.72-2.6a5.08,5.08,0,0,0-4.83,2.78l2.4,1A2.56,2.56,0,0,1,164.45,34a2.61,2.61,0,0,1,2.85,2.33v.19a6,6,0,0,0-2.82-.7c-2.59,0-5.22,1.42-5.22,4.08,0,2.43,2.12,4,4.5,4a3.82,3.82,0,0,0,3.45-1.77h.09v1.4h2.61V36.52C169.91,33.3,167.51,31.51,164.41,31.51Zm-.33,9.93c-.89,0-2.12-.44-2.12-1.54,0-1.4,1.54-1.94,2.87-1.94a4.82,4.82,0,0,1,2.47.61A3.28,3.28,0,0,1,164.08,41.44Zm15.34-9.54-3.1,7.86h-.09L173,31.9H170.1l4.83,11L172.17,49H175l7.44-17.09ZM155.06,43.5h2.71V25.37h-2.71Z" transform="translate(0 0)" style="fill:#fff"/><path d="M15.13,10.93a2.9,2.9,0,0,0-.67,2V45a2.9,2.9,0,0,0,.67,2l.11.1,18-18v-.42l-18-18Z" transform="translate(0 0)" style="fill:url(#linear-gradient)"/><path d="M39.19,35.2l-6-6v-.42l6-6,.13.08,7.09,4c2,1.15,2,3,0,4.19l-7.09,4Z" transform="translate(0 0)" style="fill:url(#linear-gradient-2)"/><path d="M39.33,35.13,33.2,29,15.13,47.07c.67.71,1.77.79,3,.09l21.18-12" transform="translate(0 0)" style="fill:url(#linear-gradient-3)"/><path d="M39.33,22.88l-21.18-12c-1.24-.71-2.35-.62-3,.09L33.2,29Z" transform="translate(0 0)" style="fill:url(#linear-gradient-4)"/><path d="M39.19,35l-21,12a2.42,2.42,0,0,1-2.91,0h0l-.11.11h0l.11.1h0a2.41,2.41,0,0,0,2.91,0l21.18-12Z" transform="translate(0 0)" style="opacity:0.2;isolation:isolate"/><path d="M15.13,46.86a2.9,2.9,0,0,1-.67-2V45a2.9,2.9,0,0,0,.67,2l.11-.11Z" transform="translate(0 0)" style="opacity:0.12;isolation:isolate"/><path d="M18.14,11.05,46.42,27.12A2.7,2.7,0,0,1,47.94,29h0a2.54,2.54,0,0,0-1.52-2.09L18.14,10.84c-2-1.15-3.68-.2-3.68,2.13v.21C14.46,10.86,16.12,9.9,18.14,11.05Z" transform="translate(0 0)" style="fill:#fff;opacity:0.25;isolation:isolate"/></svg>